<?xml version="1.0" encoding="UTF-8" standalone="no"?>
<!-- Created with Inkscape (http://www.inkscape.org/) -->

<svg
   width="25"
   height="24.999998"
   viewBox="0 0 25 24.999998"
   version="1.1"
   id="svg5"
   inkscape:version="1.1.1 (3bf5ae0d25, 2021-09-20)"
   sodipodi:docname="404.svg"
   xmlns:inkscape="http://www.inkscape.org/namespaces/inkscape"
   xmlns:sodipodi="http://sodipodi.sourceforge.net/DTD/sodipodi-0.dtd"
   xmlns="http://www.w3.org/2000/svg"
   xmlns:svg="http://www.w3.org/2000/svg"
   xmlns:rdf="http://www.w3.org/1999/02/22-rdf-syntax-ns#"
   xmlns:cc="http://creativecommons.org/ns#"
   xmlns:dc="http://purl.org/dc/elements/1.1/">
  <title
     id="title15">SVG Icons</title>
  <sodipodi:namedview
     id="namedview7"
     pagecolor="#ffffff"
     bordercolor="#666666"
     borderopacity="1.0"
     inkscape:pageshadow="2"
     inkscape:pageopacity="0.0"
     inkscape:pagecheckerboard="0"
     inkscape:document-units="px"
     showgrid="true"
     inkscape:zoom="18.465258"
     inkscape:cx="4.8740179"
     inkscape:cy="14.594976"
     inkscape:window-width="1920"
     inkscape:window-height="1017"
     inkscape:window-x="-8"
     inkscape:window-y="-8"
     inkscape:window-maximized="1"
     inkscape:current-layer="layer1"
     width="100mm"
     showborder="true"
     borderlayer="false"
     inkscape:showpageshadow="false"
     units="px"
     fit-margin-top="0"
     fit-margin-left="0"
     fit-margin-right="0"
     fit-margin-bottom="0">
    <inkscape:grid
       type="xygrid"
       id="grid9"
       dotted="false"
       units="px"
       spacingx="1"
       spacingy="1"
       empspacing="4"
       originx="4"
       originy="4.000001" />
  </sodipodi:namedview>
  <defs
     id="defs2">
    <filter
       style="color-interpolation-filters:sRGB"
       inkscape:label="Invert"
       id="filter2411"
       x="0"
       y="0"
       width="1"
       height="1">
      <feColorMatrix
         type="hueRotate"
         values="180"
         result="color1"
         id="feColorMatrix2407" />
      <feColorMatrix
         values="1 0 0 0 0 0 1 0 0 0 0 0 1 0 0 -0.21 -0.72 -0.07 2 0 "
         result="fbSourceGraphic"
         id="feColorMatrix2409" />
      <feColorMatrix
         result="fbSourceGraphicAlpha"
         in="fbSourceGraphic"
         values="0 0 0 -1 0 0 0 0 -1 0 0 0 0 -1 0 0 0 0 1 0"
         id="feColorMatrix2587" />
      <feColorMatrix
         id="feColorMatrix2589"
         values="1 0 0 0 0 0 1 0 0 0 0 0 1 0 0 -0.21 -0.72 -0.07 2 0 "
         result="color2"
         in="fbSourceGraphic" />
    </filter>
    <filter
       style="color-interpolation-filters:sRGB"
       inkscape:label="Invert"
       id="filter2453"
       x="0"
       y="0"
       width="1"
       height="1">
      <feColorMatrix
         type="hueRotate"
         values="180"
         result="color1"
         id="feColorMatrix2449" />
      <feColorMatrix
         values="1 0 0 0 0 0 1 0 0 0 0 0 1 0 0 -0.21 -0.72 -0.07 2 0 "
         result="fbSourceGraphic"
         id="feColorMatrix2451" />
      <feColorMatrix
         result="fbSourceGraphicAlpha"
         in="fbSourceGraphic"
         values="0 0 0 -1 0 0 0 0 -1 0 0 0 0 -1 0 0 0 0 1 0"
         id="feColorMatrix2541" />
      <feColorMatrix
         id="feColorMatrix2543"
         type="hueRotate"
         values="180"
         result="color1"
         in="fbSourceGraphic" />
      <feColorMatrix
         id="feColorMatrix2545"
         values="-1 0 0 0 1 0 -1 0 0 1 0 0 -1 0 1 -0.21 -0.72 -0.07 2 0 "
         result="fbSourceGraphic" />
      <feColorMatrix
         result="fbSourceGraphicAlpha"
         in="fbSourceGraphic"
         values="0 0 0 -1 0 0 0 0 -1 0 0 0 0 -1 0 0 0 0 1 0"
         id="feColorMatrix2583" />
      <feColorMatrix
         id="feColorMatrix2585"
         values="1 0 0 0 0 0 1 0 0 0 0 0 1 0 0 -0.21 -0.72 -0.07 2 0 "
         result="color2"
         in="fbSourceGraphic" />
    </filter>
  </defs>
  <g
     inkscape:label="Layer 1"
     inkscape:groupmode="layer"
     id="layer1"
     transform="translate(4,4.000001)">
    <path
       id="rect968-2"
       style="opacity:0.999642;fill:#f9c74f;fill-opacity:1;stroke-width:0.5;stroke-linecap:round;stroke-linejoin:round;stroke-dashoffset:0.375;paint-order:fill markers stroke"
       d="m 6.0000002,0.999999 v -5 H 11 v 5 z"
       sodipodi:nodetypes="ccccc" />
    <path
       id="rect1094-5"
       style="opacity:0.999642;fill:#f3722c;stroke-width:0.5;stroke-linecap:round;stroke-linejoin:round;stroke-dashoffset:0.375;paint-order:fill markers stroke"
       d="m 0.9999992,-4.000001 10e-7,5 h -5 L -4,-4 Z"
       sodipodi:nodetypes="ccccc" />
    <path
       id="rect846-8"
       style="opacity:0.999642;fill:#f8961e;stroke-width:0.5;stroke-linecap:round;stroke-linejoin:round;stroke-dashoffset:0.375;paint-order:fill markers stroke"
       d="m 1.0000002,-4.000001 h 5 v 5 h -5 z"
       sodipodi:nodetypes="ccccc" />
    <path
       id="rect1092-2"
       style="opacity:0.999642;fill:#277da1;fill-opacity:1;stroke-width:0.5;stroke-linecap:round;stroke-linejoin:round;stroke-dashoffset:0.375;paint-order:fill markers stroke"
       d="m 16,-4.000001 v 5 h 5 v -5 z"
       sodipodi:nodetypes="ccccc" />
    <path
       id="rect1090-4-3"
       style="opacity:0.999642;fill:#43aa8b;fill-opacity:1;stroke-width:0.5;stroke-linecap:round;stroke-linejoin:round;stroke-dashoffset:0.375;paint-order:fill markers stroke"
       d="m 11,-4.000001 h 5 v 5 h -5 z"
       sodipodi:nodetypes="ccccc" />
    <path
       id="rect968-2-9"
       style="opacity:0.999642;fill:#f9c74f;fill-opacity:1;stroke-width:0.5;stroke-linecap:round;stroke-linejoin:round;stroke-dashoffset:0.375;paint-order:fill markers stroke"
       d="m 11,5.999999 v -5 h 5 v 5 z"
       sodipodi:nodetypes="ccccc" />
    <path
       id="rect1094-5-5"
       style="opacity:0.999642;fill:#f3722c;stroke-width:0.5;stroke-linecap:round;stroke-linejoin:round;stroke-dashoffset:0.375;paint-order:fill markers stroke"
       d="m 5.9999992,0.999999 10e-7,5 h -5 V 1 Z"
       sodipodi:nodetypes="ccccc" />
    <path
       id="rect846-8-0"
       style="opacity:0.999642;fill:#f8961e;stroke-width:0.5;stroke-linecap:round;stroke-linejoin:round;stroke-dashoffset:0.375;paint-order:fill markers stroke"
       d="M 6.0000002,0.999999 H 11 v 5 H 6.0000002 Z"
       sodipodi:nodetypes="ccccc" />
    <path
       id="rect1092-2-3"
       style="opacity:0.999642;fill:#277da1;fill-opacity:1;stroke-width:0.5;stroke-linecap:round;stroke-linejoin:round;stroke-dashoffset:0.375;paint-order:fill markers stroke"
       d="m -3.9999998,0.999999 v 5 h 5 v -5 z"
       sodipodi:nodetypes="ccccc" />
    <path
       id="rect968-2-0"
       style="opacity:0.999642;fill:#f9c74f;fill-opacity:1;stroke-width:0.5;stroke-linecap:round;stroke-linejoin:round;stroke-dashoffset:0.375;paint-order:fill markers stroke"
       d="m 16,10.999999 v -5 h 5 v 5 z"
       sodipodi:nodetypes="ccccc" />
    <path
       id="rect1094-5-51"
       style="opacity:0.999642;fill:#f3722c;stroke-width:0.5;stroke-linecap:round;stroke-linejoin:round;stroke-dashoffset:0.375;paint-order:fill markers stroke"
       d="m 10.999999,5.999999 10e-7,5 H 6.0000002 V 6 Z"
       sodipodi:nodetypes="ccccc" />
    <path
       id="rect846-8-6"
       style="opacity:0.999642;fill:#f8961e;stroke-width:0.5;stroke-linecap:round;stroke-linejoin:round;stroke-dashoffset:0.375;paint-order:fill markers stroke"
       d="m 11,5.999999 h 5 v 5 h -5 z"
       sodipodi:nodetypes="ccccc" />
    <path
       id="rect1092-2-8"
       style="opacity:0.999642;fill:#277da1;fill-opacity:1;stroke-width:0.5;stroke-linecap:round;stroke-linejoin:round;stroke-dashoffset:0.375;paint-order:fill markers stroke"
       d="m 1.0000002,5.999999 v 5 h 5 v -5 z"
       sodipodi:nodetypes="ccccc" />
    <path
       id="rect968-2-1"
       style="opacity:0.999642;fill:#f9c74f;fill-opacity:1;stroke-width:0.5;stroke-linecap:round;stroke-linejoin:round;stroke-dashoffset:0.375;paint-order:fill markers stroke"
       d="m -3.9999998,15.999999 v -5 h 5 v 5 z"
       sodipodi:nodetypes="ccccc" />
    <path
       id="rect1094-5-4"
       style="opacity:0.999642;fill:#f3722c;stroke-width:0.5;stroke-linecap:round;stroke-linejoin:round;stroke-dashoffset:0.375;paint-order:fill markers stroke"
       d="m 15.999999,10.999999 10e-7,5 H 11 V 11 Z"
       sodipodi:nodetypes="ccccc" />
    <path
       id="rect846-8-9"
       style="opacity:0.999642;fill:#f8961e;stroke-width:0.5;stroke-linecap:round;stroke-linejoin:round;stroke-dashoffset:0.375;paint-order:fill markers stroke"
       d="m 16,10.999999 h 5 v 5 h -5 z"
       sodipodi:nodetypes="ccccc" />
    <path
       id="rect1092-2-1"
       style="opacity:0.999642;fill:#277da1;fill-opacity:1;stroke-width:0.5;stroke-linecap:round;stroke-linejoin:round;stroke-dashoffset:0.375;paint-order:fill markers stroke"
       d="m 6.0000002,10.999999 v 5 H 11 v -5 z"
       sodipodi:nodetypes="ccccc" />
    <path
       id="rect1090-4-3-6"
       style="opacity:0.999642;fill:#43aa8b;fill-opacity:1;stroke-width:0.5;stroke-linecap:round;stroke-linejoin:round;stroke-dashoffset:0.375;paint-order:fill markers stroke"
       d="m 1.0000002,10.999999 h 5 v 5 h -5 z"
       sodipodi:nodetypes="ccccc" />
    <path
       id="rect968-2-3"
       style="opacity:0.999642;fill:#f9c74f;fill-opacity:1;stroke-width:0.5;stroke-linecap:round;stroke-linejoin:round;stroke-dashoffset:0.375;paint-order:fill markers stroke"
       d="m 1.0000002,20.999998 v -5 h 5 v 5 z"
       sodipodi:nodetypes="ccccc" />
    <path
       id="rect1094-5-7"
       style="opacity:0.999642;fill:#f3722c;stroke-width:0.5;stroke-linecap:round;stroke-linejoin:round;stroke-dashoffset:0.375;paint-order:fill markers stroke"
       d="m 20.999999,15.999998 1e-6,5 h -5 v -4.999999 z"
       sodipodi:nodetypes="ccccc" />
    <path
       id="rect846-8-2"
       style="opacity:0.999642;fill:#f8961e;stroke-width:0.5;stroke-linecap:round;stroke-linejoin:round;stroke-dashoffset:0.375;paint-order:fill markers stroke"
       d="m -3.9999998,15.999998 h 5 v 5 h -5 z"
       sodipodi:nodetypes="ccccc" />
    <path
       id="rect1092-2-82"
       style="opacity:0.999642;fill:#277da1;fill-opacity:1;stroke-width:0.5;stroke-linecap:round;stroke-linejoin:round;stroke-dashoffset:0.375;paint-order:fill markers stroke"
       d="m 11,15.999998 v 5 h 5 v -5 z"
       sodipodi:nodetypes="ccccc" />
    <path
       id="rect1090-4-3-7"
       style="opacity:0.999642;fill:#43aa8b;fill-opacity:1;stroke-width:0.5;stroke-linecap:round;stroke-linejoin:round;stroke-dashoffset:0.375;paint-order:fill markers stroke"
       d="M 6.0000002,15.999998 H 11 v 5 H 6.0000002 Z"
       sodipodi:nodetypes="ccccc" />
    <path
       id="rect1090-4-3-9"
       style="opacity:0.999642;fill:#43aa8b;fill-opacity:1;stroke-width:0.5;stroke-linecap:round;stroke-linejoin:round;stroke-dashoffset:0.375;paint-order:fill markers stroke"
       d="m -3.9999998,5.999999 h 5 v 5 h -5 z"
       sodipodi:nodetypes="ccccc" />
    <path
       id="rect1090-4-3-5"
       style="opacity:0.999642;fill:#43aa8b;fill-opacity:1;stroke-width:0.5;stroke-linecap:round;stroke-linejoin:round;stroke-dashoffset:0.375;paint-order:fill markers stroke"
       d="m 16,0.999999 h 5 v 5 h -5 z"
       sodipodi:nodetypes="ccccc" />
    <path
       id="path1490-23"
       style="opacity:0.999642;fill:#f9c74f;fill-opacity:1;stroke-width:1;stroke-linejoin:round;stroke-dashoffset:0.375"
       d="m 14.497408,-3.233353 c -0.561329,-0.3240835 -1.269306,-0.163315 -1.639395,0.3524228 -0.04023,0.056087 -0.01953,0.133049 0.04025,0.167565 l 0.432976,0.249979 c 0.05978,0.034515 0.135467,0.012622 0.183537,-0.036669 0.155817,-0.1597835 0.405513,-0.2005446 0.607662,-0.083834 0.239126,0.1380595 0.321057,0.443829 0.182997,0.6829551 -0.138059,0.2391261 -0.443829,0.3210566 -0.682955,0.1829971 l -0.108243,-0.062494 -0.108245,-0.062495 a 0.12498943,0.12498943 0 0 0 -0.170738,0.04575 l -0.499958,0.86595212 c -0.03452,0.0597815 -0.01403,0.13622403 0.04575,0.17073853 l 0.432976,0.249979 c 0.05978,0.034515 0.136224,0.0140319 0.170739,-0.0457495 l 0.217022,-0.37589429 C 14.134067,-0.8137327 14.681685,-1.0540549 14.954901,-1.5259657 15.30005,-2.123781 15.095224,-2.888204 14.497408,-3.233353 Z m -1.84135,2.68935516 c -0.05978,-0.034515 -0.136224,-0.0140317 -0.170739,0.0457496 l -0.249979,0.43297607 c -0.03452,0.05978174 -0.01403,0.13622409 0.04575,0.17073859 l 0.432977,0.249979 c 0.05978,0.034515 0.136223,0.0140317 0.170738,-0.0457496 l 0.249979,-0.43297607 c 0.03451,-0.0597817 0.01403,-0.13622408 -0.04575,-0.17073858 z" />
    <path
       id="path1490-23-6"
       style="opacity:0.999642;fill:#f9c74f;fill-opacity:1;stroke-width:1;stroke-linejoin:round;stroke-dashoffset:0.375"
       d="m 2.4975775,-3.2304579 c -0.5613291,0.3240835 -0.7760881,1.017594 -0.5144908,1.5959698 0.028456,0.062887 0.1054582,0.083439 0.1652417,0.048923 l 0.4329763,-0.249979 c 0.059782,-0.034515 0.078665,-0.1110065 0.060012,-0.177282 -0.060468,-0.2148335 0.02908,-0.4514566 0.231229,-0.5681676 0.2391261,-0.1380595 0.5448957,-0.056129 0.6829552,0.1829971 0.1380595,0.2391261 0.056129,0.5448956 -0.1829975,0.6829551 l -0.1082436,0.062495 -0.1082445,0.062495 a 0.12498943,0.12498943 0 0 0 -0.045749,0.1707386 l 0.4999577,0.86595213 c 0.034515,0.0597815 0.1109575,0.080264 0.1707383,0.0457495 l 0.4329764,-0.249979 c 0.059782,-0.034515 0.080264,-0.11095711 0.045749,-0.17073853 L 4.0426651,-1.3042236 c 0.3686942,-0.401761 0.434378,-0.9961732 0.1622995,-1.468741 C 3.8598158,-3.3707799 3.0953931,-3.5756069 2.4975775,-3.2304579 Z m 1.4083745,2.93933417 c -0.059782,0.034515 -0.080264,0.11095728 -0.045749,0.17073858 l 0.2499788,0.43297607 c 0.034515,0.0597817 0.1109575,0.0802641 0.1707384,0.0457496 l 0.4329763,-0.249979 c 0.059782,-0.034515 0.080264,-0.11095728 0.045749,-0.17073858 L 4.5096667,-0.49535315 c -0.034515,-0.0597817 -0.1109575,-0.0802641 -0.1707384,-0.0457496 z" />
    <path
       id="path1490-23-68"
       style="opacity:0.999642;fill:#ffffff;fill-opacity:1;stroke-width:1;stroke-linejoin:round;stroke-dashoffset:0.375"
       d="m 8.497105,-3.499832 c -0.648167,0 -1.180909,0.4932182 -1.243547,1.124905 -0.0068,0.06869 0.04961,0.1249894 0.118642,0.1249894 h 0.499958 c 0.06903,0 0.123629,-0.056802 0.140613,-0.1235247 0.05505,-0.2162852 0.250912,-0.376433 0.484334,-0.376433 0.276119,0 0.499958,0.2238387 0.499958,0.4999577 0,0.276119 -0.223839,0.4999577 -0.499958,0.4999577 H 8.372116 8.247126 a 0.12498943,0.12498943 0 0 0 -0.124989,0.1249895 v 0.99991544 c 0,0.0690297 0.05596,0.12498944 0.124989,0.12498944 h 0.499958 c 0.06903,0 0.124989,-0.0559598 0.124989,-0.12498944 V -1.0591203 c 0.520179,-0.1635882 0.874269,-0.6455223 0.874926,-1.1908173 0,-0.6902976 -0.559596,-1.2498944 -1.249894,-1.2498944 z m -0.249979,3.2497253 c -0.06903,0 -0.124989,0.05596 -0.124989,0.1249895 v 0.4999577 c 0,0.06903 0.05596,0.1249895 0.124989,0.1249895 h 0.499958 c 0.06903,0 0.124989,-0.05596 0.124989,-0.1249895 v -0.4999577 c 0,-0.06903 -0.05596,-0.1249895 -0.124989,-0.1249895 z" />
    <path
       id="path1490-23-1"
       style="opacity:0.999642;fill:#f9c74f;fill-opacity:1;stroke-width:1;stroke-linejoin:round;stroke-dashoffset:0.375"
       d="m -2.9161411,-2.9120479 c -0.4583233,0.4583233 -0.4862708,1.1837867 -0.083893,1.6747485 0.043763,0.053379 0.1234605,0.053301 0.1722734,0.00449 L -2.474237,-1.586333 c 0.048812,-0.048812 0.047254,-0.127584 0.012083,-0.1867736 -0.1140105,-0.191863 -0.088757,-0.4435999 0.076298,-0.6086542 0.1952456,-0.1952456 0.5118016,-0.1952458 0.7070472,-2e-7 0.1952456,0.1952456 0.1952454,0.5118016 -2e-7,0.7070472 l -0.088381,0.08838 -0.088381,0.088381 a 0.12498943,0.12498943 0 0 0 4e-7,0.1767615 l 0.707047,0.707047 c 0.048811,0.0488114 0.1279506,0.0488112 0.17676143,3.1e-7 l 0.35352369,-0.35352369 c 0.0488116,-0.0488116 0.048811,-0.12795012 -3.1e-7,-0.17676142 L -0.9251549,-1.4513465 c 0.25214777,-0.4834965 0.16174834,-1.0746548 -0.2233689,-1.4607011 -0.4881141,-0.4881141 -1.2795029,-0.4881147 -1.7676173,-3e-7 z m 2.12114095,2.47466463 c -0.0488116,0.0488116 -0.0488109,0.12795026 3.5e-7,0.17676149 l 0.35352348,0.35352348 c 0.0488116,0.04881158 0.12795062,0.04881123 0.17676149,3.5e-7 l 0.35352369,-0.35352369 c 0.04881158,-0.0488116 0.04881088,-0.12795026 -3.5e-7,-0.17676149 l -0.35352348,-0.35352348 c -0.0488116,-0.0488116 -0.12795062,-0.0488112 -0.17676149,-3.5e-7 z" />
    <path
       id="path1490-1"
       style="opacity:0.999642;fill:#f9c74f;fill-opacity:1;stroke-width:1;stroke-linejoin:round;stroke-dashoffset:0.375"
       d="m 19.912047,-2.9161422 c -0.458323,-0.4583233 -1.183787,-0.4862708 -1.674748,-0.083893 -0.05338,0.043763 -0.0533,0.1234604 -0.0045,0.1722734 l 0.353524,0.3535237 c 0.04881,0.048812 0.127584,0.047254 0.186774,0.012083 0.191862,-0.1140105 0.443599,-0.088757 0.608654,0.076298 0.195245,0.1952456 0.195246,0.5118016 0,0.7070472 -0.195246,0.1952456 -0.511802,0.1952454 -0.707047,-2e-7 l -0.08838,-0.088381 -0.08838,-0.088381 a 0.12498943,0.12498943 0 0 0 -0.176762,4e-7 l -0.707047,0.7070469 c -0.04881,0.048812 -0.04881,0.1279507 0,0.17676153 l 0.353524,0.3535237 c 0.04881,0.0488116 0.12795,0.0488109 0.176761,-3.6e-7 L 18.451346,-0.925156 c 0.483496,0.25214777 1.074654,0.16174834 1.460701,-0.2233689 0.488114,-0.4881141 0.488114,-1.2795029 0,-1.7676173 z m -2.474665,2.12114094 c -0.04881,-0.0488116 -0.12795,-0.0488109 -0.176761,3.5e-7 l -0.353524,0.35352348 c -0.04881,0.0488116 -0.04881,0.12795062 0,0.1767615 l 0.353524,0.35352369 c 0.04881,0.04881158 0.12795,0.04881087 0.176761,-3.6e-7 l 0.353524,-0.35352348 c 0.04881,-0.0488116 0.04881,-0.12795061 0,-0.17676149 z" />
    <path
       id="path1490-23-4"
       style="opacity:0.999642;fill:#43aa8b;fill-opacity:1;stroke-width:1;stroke-linejoin:round;stroke-dashoffset:0.375"
       d="M 14.916648,2.1433889 C 14.458325,1.6850655 13.732861,1.6571181 13.2419,2.0594963 13.18852,2.1032593 13.1886,2.1829567 13.2374,2.2317697 l 0.353524,0.3535237 c 0.04881,0.048811 0.127584,0.047254 0.186773,0.012084 0.191863,-0.1140105 0.4436,-0.088757 0.608654,0.076298 0.195247,0.1952463 0.195246,0.5118015 1e-6,0.7070471 -0.195242,0.1952483 -0.511802,0.1952455 -0.707048,-1e-7 l -0.08838,-0.088381 -0.08838,-0.088381 a 0.12498943,0.12498943 0 0 0 -0.176761,4e-7 l -0.707047,0.7070469 c -0.04881,0.04881 -0.04881,0.1279513 -1e-6,0.1767616 l 0.353524,0.3535235 c 0.04881,0.048811 0.12795,0.048811 0.176761,-2e-7 l 0.306917,-0.3069165 c 0.483496,0.252148 1.074654,0.1617486 1.460701,-0.2233685 0.488114,-0.4881143 0.488114,-1.2795031 0,-1.7676174 z m -2.474665,2.1211409 c -0.04881,-0.048811 -0.12795,-0.048811 -0.176761,4e-7 l -0.353524,0.3535234 c -0.04881,0.04881 -0.04881,0.1279513 0,0.1767616 l 0.353524,0.3535237 c 0.04881,0.048811 0.12795,0.048811 0.176761,-4e-7 l 0.353524,-0.3535236 c 0.04881,-0.04881 0.04881,-0.1279513 10e-7,-0.1767609 z" />
    <path
       id="path1490-23-6-0"
       style="opacity:0.999642;fill:#43aa8b;fill-opacity:1;stroke-width:1;stroke-linejoin:round;stroke-dashoffset:0.375"
       d="M 2.083859,2.0879521 C 1.6255357,2.5462754 1.5975882,3.2717388 1.999966,3.7627006 c 0.043763,0.053379 0.1234605,0.053301 0.1722734,0.00449 L 2.5257635,3.4136652 c 0.048812,-0.048812 0.047254,-0.127584 0.012083,-0.1867736 -0.1140105,-0.191863 -0.088757,-0.4435999 0.076297,-0.6086542 0.1952456,-0.1952456 0.5118016,-0.1952458 0.7070472,-2e-7 0.1952456,0.1952456 0.1952454,0.5118016 -2e-7,0.7070472 l -0.088381,0.08838 -0.088381,0.088381 a 0.12498943,0.12498943 0 0 0 4e-7,0.1767615 l 0.7070469,0.707047 c 0.048812,0.048812 0.1279507,0.048811 0.1767615,3e-7 L 4.3817619,4.0323313 c 0.048812,-0.048812 0.048811,-0.1279502 -3e-7,-0.1767615 L 4.0748452,3.5486535 C 4.326993,3.065157 4.2365935,2.4739987 3.8514763,2.0879524 3.3633622,1.5998383 2.5719734,1.5998377 2.083859,2.0879521 Z m 2.1211409,2.4746646 c -0.048812,0.048812 -0.048811,0.1279503 4e-7,0.1767615 l 0.3535235,0.3535235 c 0.048812,0.048812 0.1279506,0.048811 0.1767615,4e-7 L 5.088809,4.7393784 C 5.13762,4.6905664 5.13762,4.6114281 5.0888086,4.5626169 L 4.7352851,4.2090934 c -0.048812,-0.048812 -0.1279506,-0.048811 -0.1767615,-4e-7 z" />
    <path
       id="path1490-23-68-7"
       style="opacity:0.999642;fill:#43aa8b;fill-opacity:1;stroke-width:1;stroke-linejoin:round;stroke-dashoffset:0.375"
       d="m 8.497105,1.500168 c -0.648167,0 -1.180909,0.4932182 -1.243547,1.124905 -0.0068,0.06869 0.04961,0.1249894 0.118642,0.1249894 h 0.499958 c 0.06903,0 0.123629,-0.056802 0.140613,-0.1235247 0.05505,-0.2162852 0.250912,-0.376433 0.484334,-0.376433 0.276119,0 0.499958,0.2238387 0.499958,0.4999577 0,0.276119 -0.223839,0.4999577 -0.499958,0.4999577 H 8.372116 8.247126 A 0.12498943,0.12498943 0 0 0 8.122137,3.3750096 V 4.374925 c 0,0.06903 0.05596,0.1249895 0.124989,0.1249895 h 0.499958 c 0.06903,0 0.124989,-0.05596 0.124989,-0.1249895 V 3.9408797 C 9.392252,3.7772915 9.746342,3.2953574 9.746999,2.7500624 9.746999,2.0597648 9.187403,1.500168 8.497105,1.500168 Z M 8.247126,4.7498933 c -0.06903,0 -0.124989,0.05596 -0.124989,0.1249895 v 0.4999577 c 0,0.06903 0.05596,0.1249895 0.124989,0.1249895 h 0.499958 c 0.06903,0 0.124989,-0.05596 0.124989,-0.1249895 V 4.8748828 c 0,-0.06903 -0.05596,-0.1249895 -0.124989,-0.1249895 z" />
    <path
       id="path1490-23-1-8"
       style="opacity:0.999642;fill:#43aa8b;fill-opacity:1;stroke-width:1;stroke-linejoin:round;stroke-dashoffset:0.375"
       d="m -3.2333518,2.5025907 c -0.3240835,0.5613291 -0.163315,1.2693063 0.3524228,1.6393958 0.056087,0.040234 0.133049,0.019531 0.167565,-0.040252 L -2.463385,3.6687582 C -2.42887,3.6089762 -2.450763,3.5332914 -2.500054,3.4852214 -2.6598375,3.3294041 -2.7005986,3.0797088 -2.583888,2.8775594 c 0.1380595,-0.2391261 0.443829,-0.321057 0.6829551,-0.1829975 0.2391261,0.1380595 0.3210566,0.4438291 0.1829971,0.6829552 l -0.062494,0.1082436 -0.062495,0.1082445 a 0.12498943,0.12498943 0 0 0 0.04575,0.1707384 l 0.86595209,0.4999577 c 0.0597817,0.034515 0.13622409,0.014032 0.17073859,-0.045749 l 0.249979,-0.4329763 c 0.034515,-0.059782 0.0140317,-0.1362236 -0.0457496,-0.1707384 L -0.93214946,3.3982148 C -0.8137315,2.8659324 -1.0540537,2.3183145 -1.5259645,2.045098 -2.1237798,1.6999492 -2.8882028,1.9047751 -3.2333518,2.5025907 Z m 2.68935517,1.8413508 c -0.034515,0.059782 -0.0140317,0.1362237 0.0457496,0.1707384 l 0.43297607,0.2499789 c 0.05978173,0.034515 0.13622408,0.014032 0.17073858,-0.045749 L 0.3554466,4.2859336 C 0.3899616,4.2261518 0.36947832,4.1497099 0.30969702,4.1151952 L -0.12327905,3.8652163 c -0.0597817,-0.034515 -0.13622408,-0.014032 -0.17073858,0.045749 z" />
    <path
       id="path1490-1-9"
       style="opacity:0.999642;fill:#ffffff;fill-opacity:1;stroke-width:1;stroke-linejoin:round;stroke-dashoffset:0.375"
       d="m 20.344402,2.4146091 c -0.324084,-0.5613288 -1.017594,-0.776088 -1.59597,-0.5144907 -0.06289,0.028455 -0.08344,0.1054577 -0.04893,0.1652389 l 0.249978,0.4329756 c 0.03451,0.059783 0.111007,0.078665 0.177283,0.060013 0.214833,-0.060468 0.451456,0.02908 0.568167,0.2312293 0.138059,0.2391261 0.05613,0.5448957 -0.182997,0.6829553 -0.239123,0.138063 -0.544897,0.056128 -0.682955,-0.1829976 L 18.76648,3.181289 18.703986,3.073045 A 0.12498943,0.12498943 0 0 0 18.533247,3.027296 l -0.865942,0.4999597 c -0.05978,0.034514 -0.08026,0.1109565 -0.04575,0.1707377 l 0.24998,0.4329768 c 0.03451,0.059782 0.110958,0.080264 0.170739,0.045749 l 0.375895,-0.2170219 c 0.40176,0.3686936 0.996172,0.4343775 1.46874,0.162299 0.597816,-0.345148 0.802642,-1.1095715 0.457493,-1.7073872 z M 17.405068,3.8229837 C 17.370554,3.7632013 17.29411,3.7427192 17.234329,3.777235 l -0.432976,0.2499787 c -0.05979,0.034511 -0.08026,0.1109565 -0.04575,0.1707385 l 0.24998,0.4329762 c 0.03451,0.059782 0.110957,0.080264 0.170738,0.045749 l 0.432976,-0.2499786 c 0.05979,-0.034511 0.08027,-0.1109514 0.04575,-0.1707377 z" />
    <path
       id="path1490-23-5"
       style="opacity:0.999642;fill:#277da1;fill-opacity:1;stroke-width:1;stroke-linejoin:round;stroke-dashoffset:0.375"
       d="m 15.499831,8.4971039 c 0,-0.648167 -0.493218,-1.180909 -1.124905,-1.243547 -0.06869,-0.0068 -0.124989,0.04961 -0.124989,0.118642 v 0.499958 c 0,0.06903 0.0568,0.123629 0.123524,0.140613 0.216285,0.05505 0.376433,0.250912 0.376433,0.484334 0,0.276119 -0.223838,0.499958 -0.499957,0.499958 -0.276119,0 -0.499958,-0.223839 -0.499958,-0.499958 v -0.124989 -0.12499 a 0.12498943,0.12498943 0 0 0 -0.12499,-0.124989 h -0.999915 c -0.06903,0 -0.124989,0.05596 -0.124989,0.124989 v 0.499958 c 0,0.06903 0.05596,0.124989 0.124989,0.124989 h 0.434045 c 0.163588,0.520179 0.645523,0.874269 1.190818,0.874926 0.690297,0 1.249894,-0.559596 1.249894,-1.249894 z m -3.249725,-0.249979 c 0,-0.06903 -0.05596,-0.124989 -0.12499,-0.124989 h -0.499957 c -0.06903,0 -0.12499,0.05596 -0.12499,0.124989 v 0.499958 c 0,0.06903 0.05596,0.124989 0.12499,0.124989 h 0.499957 c 0.06903,0 0.12499,-0.05596 0.12499,-0.124989 z" />
    <path
       id="path1490-23-6-02"
       style="opacity:0.999642;fill:#ffffff;fill-opacity:1;stroke-width:1;stroke-linejoin:round;stroke-dashoffset:0.375"
       d="m 1.5001692,8.5028941 c 0,0.648167 0.493218,1.180909 1.124905,1.243547 0.06869,0.0068 0.124989,-0.04961 0.124989,-0.118642 v -0.499958 c 0,-0.06903 -0.0568,-0.123629 -0.123524,-0.140613 -0.216285,-0.05505 -0.376433,-0.250912 -0.376433,-0.484334 0,-0.276119 0.223838,-0.499958 0.499957,-0.499958 0.276119,0 0.499958,0.223839 0.499958,0.499958 v 0.124989 0.12499 a 0.12498943,0.12498943 0 0 0 0.12499,0.124989 h 0.999915 c 0.06903,0 0.124989,-0.05596 0.124989,-0.124989 v -0.499958 c 0,-0.06903 -0.05596,-0.124989 -0.124989,-0.124989 h -0.434045 c -0.163588,-0.520179 -0.645523,-0.874269 -1.190818,-0.874926 -0.690297,0 -1.249894,0.559596 -1.249894,1.249894 z m 3.249725,0.249979 c 0,0.06903 0.05596,0.124989 0.12499,0.124989 h 0.499957 c 0.06903,0 0.12499,-0.05596 0.12499,-0.124989 v -0.499958 c 0,-0.06903 -0.05596,-0.124989 -0.12499,-0.124989 h -0.499957 c -0.06903,0 -0.12499,0.05596 -0.12499,0.124989 z" />
    <path
       id="path1490-23-68-8"
       style="opacity:0.999642;fill:#277da1;fill-opacity:1;stroke-width:1;stroke-linejoin:round;stroke-dashoffset:0.375"
       d="m 8.497105,6.500168 c -0.648167,0 -1.180909,0.493218 -1.243547,1.124905 -0.0068,0.06869 0.04961,0.124989 0.118642,0.124989 h 0.499958 c 0.06903,0 0.123629,-0.0568 0.140613,-0.123524 0.05505,-0.216285 0.250912,-0.376433 0.484334,-0.376433 0.276119,0 0.499958,0.223838 0.499958,0.499957 0,0.276119 -0.223839,0.499958 -0.499958,0.499958 H 8.372116 8.247126 A 0.12498943,0.12498943 0 0 0 8.122137,8.37501 v 0.999915 c 0,0.06903 0.05596,0.124989 0.124989,0.124989 h 0.499958 c 0.06903,0 0.124989,-0.05596 0.124989,-0.124989 V 8.94088 C 9.392252,8.777292 9.746342,8.295357 9.746999,7.750062 9.746999,7.059765 9.187403,6.500168 8.497105,6.500168 Z M 8.247126,9.749893 c -0.06903,0 -0.124989,0.05596 -0.124989,0.12499 v 0.499957 c 0,0.06903 0.05596,0.12499 0.124989,0.12499 h 0.499958 c 0.06903,0 0.124989,-0.05596 0.124989,-0.12499 V 9.874883 c 0,-0.06903 -0.05596,-0.12499 -0.124989,-0.12499 z" />
    <path
       id="path1490-23-1-88"
       style="opacity:0.999642;fill:#277da1;fill-opacity:1;stroke-width:1;stroke-linejoin:round;stroke-dashoffset:0.375"
       d="m -3.4998308,8.5028941 c 0,0.648167 0.493218,1.180909 1.124905,1.243547 0.06869,0.0068 0.124989,-0.04961 0.124989,-0.118642 v -0.499958 c 0,-0.06903 -0.0568,-0.123629 -0.123524,-0.140613 -0.216285,-0.05505 -0.376433,-0.250912 -0.376433,-0.484334 0,-0.276119 0.223838,-0.499958 0.499957,-0.499958 0.276119,0 0.499958,0.223839 0.499958,0.499958 v 0.124989 0.12499 a 0.12498943,0.12498943 0 0 0 0.12499,0.124989 h 0.999915 c 0.06903,0 0.124989,-0.05596 0.124989,-0.124989 v -0.499958 c 0,-0.06903 -0.05596,-0.124989 -0.124989,-0.124989 h -0.434045 c -0.163588,-0.520179 -0.645523,-0.874269 -1.190818,-0.874926 -0.690297,0 -1.249894,0.559596 -1.249894,1.249894 z m 3.249725,0.249979 c 0,0.06903 0.05596,0.124989 0.12499,0.124989 h 0.499957 c 0.06903,0 0.12499,-0.05596 0.12499,-0.124989 v -0.499958 c 0,-0.06903 -0.05596,-0.124989 -0.12499,-0.124989 h -0.499957 c -0.06903,0 -0.12499,0.05596 -0.12499,0.124989 z" />
    <path
       id="path1490-1-3"
       style="opacity:0.999642;fill:#277da1;fill-opacity:1;stroke-width:1;stroke-linejoin:round;stroke-dashoffset:0.375"
       d="m 20.499831,8.4971039 c 0,-0.648167 -0.493218,-1.180909 -1.124905,-1.243547 -0.06869,-0.0068 -0.124989,0.04961 -0.124989,0.118642 v 0.499958 c 0,0.06903 0.0568,0.123629 0.123524,0.140613 0.216285,0.05505 0.376433,0.250912 0.376433,0.484334 0,0.276119 -0.223838,0.499958 -0.499957,0.499958 -0.276119,0 -0.499958,-0.223839 -0.499958,-0.499958 v -0.124989 -0.12499 a 0.12498943,0.12498943 0 0 0 -0.12499,-0.124989 h -0.999915 c -0.06903,0 -0.124989,0.05596 -0.124989,0.124989 v 0.499958 c 0,0.06903 0.05596,0.124989 0.124989,0.124989 h 0.434045 c 0.163588,0.520179 0.645523,0.874269 1.190818,0.874926 0.690297,0 1.249894,-0.559596 1.249894,-1.249894 z m -3.249725,-0.249979 c 0,-0.06903 -0.05596,-0.124989 -0.12499,-0.124989 h -0.499957 c -0.06903,0 -0.12499,0.05596 -0.12499,0.124989 v 0.499958 c 0,0.06903 0.05596,0.124989 0.12499,0.124989 h 0.499957 c 0.06903,0 0.12499,-0.05596 0.12499,-0.124989 z" />
    <path
       id="path1490-23-3"
       style="opacity:0.999642;fill:#ffffff;fill-opacity:1;stroke-width:1;stroke-linejoin:round;stroke-dashoffset:0.375"
       d="m 14.916141,14.912046 c 0.458324,-0.458323 0.486271,-1.183787 0.08389,-1.674749 -0.04376,-0.05338 -0.12346,-0.0533 -0.172273,-0.0045 l -0.353524,0.353524 c -0.04881,0.04881 -0.04725,0.127583 -0.01208,0.186773 0.114011,0.191863 0.08876,0.4436 -0.0763,0.608654 -0.195246,0.195246 -0.511801,0.195247 -0.707047,10e-7 -0.195246,-0.195246 -0.195246,-0.511802 0,-0.707047 l 0.08838,-0.08838 0.08838,-0.08838 a 0.12498943,0.12498943 0 0 0 -1e-6,-0.176762 L 13.14852,12.614133 c -0.04881,-0.04881 -0.127951,-0.04881 -0.176762,0 l -0.353523,0.353524 c -0.04881,0.04881 -0.04881,0.12795 0,0.176761 l 0.306916,0.306916 c -0.252148,0.483497 -0.161748,1.074656 0.223369,1.460702 0.488114,0.488114 1.279503,0.488114 1.767617,0 z m -2.12114,-2.474665 c 0.04881,-0.04881 0.04881,-0.12795 -10e-7,-0.176761 l -0.353523,-0.353523 c -0.04881,-0.04881 -0.127951,-0.04881 -0.176762,-1e-6 l -0.353524,0.353524 c -0.04881,0.04881 -0.04881,0.12795 10e-7,0.176761 l 0.353523,0.353523 c 0.04881,0.04881 0.127951,0.04881 0.176762,1e-6 z" />
    <path
       id="path1490-23-6-2"
       style="opacity:0.999642;fill:#f3722c;fill-opacity:1;stroke-width:1;stroke-linejoin:round;stroke-dashoffset:0.375"
       d="m 2.0879533,14.91614 c 0.4583233,0.458323 1.1837865,0.486271 1.6747485,0.08389 0.05338,-0.04376 0.053301,-0.12346 0.00449,-0.172273 L 3.4136661,14.474236 c -0.048812,-0.04881 -0.1275826,-0.04725 -0.1867731,-0.01208 -0.1918628,0.114011 -0.4435999,0.08876 -0.6086542,-0.0763 -0.1952456,-0.195246 -0.1952463,-0.511801 -7e-7,-0.707047 0.1952456,-0.195246 0.5118018,-0.195246 0.7070474,0 l 0.088381,0.08838 0.088381,0.08838 a 0.12498943,0.12498943 0 0 0 0.1767618,-10e-7 L 4.385856,13.148521 c 0.048812,-0.04881 0.048811,-0.12795 0,-0.176761 L 4.0323322,12.618238 c -0.048812,-0.04881 -0.1279503,-0.04881 -0.1767612,0 l -0.3069161,0.306916 c -0.4834963,-0.252148 -1.0746552,-0.161748 -1.4607016,0.223369 -0.4881137,0.488114 -0.4881144,1.279503 0,1.767617 z m 2.4746644,-2.121141 c 0.048812,0.04881 0.1279503,0.04881 0.1767619,0 l 0.353523,-0.353523 c 0.048811,-0.04881 0.048811,-0.127951 7e-7,-0.176762 L 4.7393796,11.91119 c -0.048812,-0.04881 -0.1279503,-0.04881 -0.1767619,1e-6 l -0.353523,0.353523 c -0.048811,0.04881 -0.048811,0.127951 -7e-7,0.176762 z" />
    <path
       id="path1490-23-68-3"
       style="opacity:0.999642;fill:#f3722c;fill-opacity:1;stroke-width:1;stroke-linejoin:round;stroke-dashoffset:0.375"
       d="m 8.5028952,15.49983 c 0.648167,0 1.180909,-0.493218 1.243547,-1.124905 0.0068,-0.06869 -0.04961,-0.124989 -0.118642,-0.124989 h -0.499958 c -0.06903,0 -0.123629,0.0568 -0.140613,0.123524 -0.05505,0.216285 -0.250912,0.376433 -0.484334,0.376433 -0.276119,0 -0.499958,-0.223838 -0.499958,-0.499957 0,-0.276119 0.223839,-0.499958 0.499958,-0.499958 h 0.124989 0.12499 a 0.12498943,0.12498943 0 0 0 0.124989,-0.12499 v -0.999915 c 0,-0.06903 -0.05596,-0.124989 -0.124989,-0.124989 h -0.499958 c -0.06903,0 -0.124989,0.05596 -0.124989,0.124989 v 0.434045 c -0.520179,0.163588 -0.874269,0.645523 -0.874926,1.190818 0,0.690297 0.559596,1.249894 1.249894,1.249894 z m 0.249979,-3.249725 c 0.06903,0 0.124989,-0.05596 0.124989,-0.12499 v -0.499957 c 0,-0.06903 -0.05596,-0.12499 -0.124989,-0.12499 h -0.499958 c -0.06903,0 -0.124989,0.05596 -0.124989,0.12499 v 0.499957 c 0,0.06903 0.05596,0.12499 0.124989,0.12499 z" />
    <path
       id="path1490-23-1-85"
       style="opacity:0.999642;fill:#f3722c;fill-opacity:1;stroke-width:1;stroke-linejoin:round;stroke-dashoffset:0.375"
       d="m -3.2304567,14.502422 c 0.3240835,0.561329 1.0175938,0.776088 1.5959698,0.514491 0.062887,-0.02846 0.083439,-0.105458 0.048923,-0.165242 l -0.249979,-0.432976 c -0.034515,-0.05978 -0.1110048,-0.07867 -0.1772815,-0.06001 -0.2148333,0.06047 -0.4514565,-0.02908 -0.5681675,-0.231229 -0.1380595,-0.239126 -0.05613,-0.544895 0.1829965,-0.682955 0.239126,-0.138059 0.5448958,-0.05613 0.6829553,0.182998 l 0.062494,0.108243 0.062495,0.108245 a 0.12498943,0.12498943 0 0 0 0.170739,0.04575 l 0.8659518,-0.499958 c 0.0597817,-0.03452 0.0802636,-0.110957 0.0457491,-0.170738 l -0.249979,-0.432976 c -0.034515,-0.05978 -0.11095728,-0.08026 -0.17073814,-0.04575 l -0.37589396,0.217023 c -0.4017609,-0.368694 -0.9961738,-0.434378 -1.4687416,-0.162299 -0.5978148,0.345148 -0.802642,1.109571 -0.457493,1.707387 z m 2.93933391,-1.408375 c 0.034515,0.05978 0.11095728,0.08026 0.17073901,0.04575 l 0.43297547,-0.249978 c 0.0597817,-0.03452 0.0802645,-0.110958 0.04575,-0.170739 l -0.249979,-0.432976 c -0.034515,-0.05978 -0.11095728,-0.08026 -0.17073901,-0.04575 l -0.43297547,0.249978 c -0.0597817,0.03451 -0.0802645,0.110958 -0.04575,0.170739 z" />
    <path
       id="path1490-1-8"
       style="opacity:0.999642;fill:#f3722c;fill-opacity:1;stroke-width:1;stroke-linejoin:round;stroke-dashoffset:0.375"
       d="m 20.233352,14.497407 c 0.324084,-0.561329 0.163315,-1.269306 -0.352423,-1.639396 -0.05609,-0.04023 -0.133048,-0.01953 -0.167564,0.04025 l -0.249979,0.432976 c -0.03451,0.05978 -0.01262,0.135466 0.03667,0.183537 0.159783,0.155817 0.200545,0.405512 0.08383,0.607662 -0.13806,0.239126 -0.443829,0.321057 -0.682955,0.182998 -0.239126,-0.13806 -0.321057,-0.44383 -0.182997,-0.682956 l 0.06249,-0.108243 0.0625,-0.108245 a 0.12498943,0.12498943 0 0 0 -0.04575,-0.170739 l -0.865951,-0.499957 c -0.05978,-0.03451 -0.136224,-0.01403 -0.170739,0.04575 l -0.249979,0.432976 c -0.03451,0.05978 -0.01403,0.136224 0.04575,0.170739 l 0.375894,0.217022 c -0.118419,0.532282 0.121904,1.079901 0.593815,1.353117 0.597815,0.345149 1.362238,0.140323 1.707387,-0.457493 z m -2.689355,-1.84135 c 0.03451,-0.05978 0.01403,-0.136224 -0.04575,-0.170739 l -0.432975,-0.249979 c -0.05978,-0.03451 -0.136225,-0.01403 -0.170739,0.04575 l -0.249979,0.432976 c -0.03451,0.05978 -0.01403,0.136224 0.04575,0.170739 l 0.432975,0.249979 c 0.05978,0.03452 0.136225,0.01403 0.170739,-0.04575 z" />
    <path
       id="path1490-23-57"
       style="opacity:0.999642;fill:#f8961e;fill-opacity:1;stroke-width:1;stroke-linejoin:round;stroke-dashoffset:0.375"
       d="m 14.502423,20.230455 c 0.561329,-0.324084 0.776088,-1.017594 0.514491,-1.59597 -0.02846,-0.06289 -0.105458,-0.08344 -0.165242,-0.04892 l -0.432976,0.249979 c -0.05978,0.03452 -0.07867,0.111005 -0.06001,0.177282 0.06047,0.214834 -0.02908,0.451456 -0.231229,0.568167 -0.239126,0.13806 -0.544895,0.05613 -0.682954,-0.182996 -0.13806,-0.239126 -0.05613,-0.544896 0.182997,-0.682955 l 0.108243,-0.0625 0.108245,-0.06249 a 0.12498943,0.12498943 0 0 0 0.04575,-0.170739 L 13.38978,17.553361 c -0.03451,-0.05978 -0.110957,-0.08026 -0.170738,-0.04575 l -0.432976,0.249979 c -0.05978,0.03452 -0.08026,0.110957 -0.04575,0.170738 l 0.217022,0.375894 c -0.368694,0.401762 -0.434378,0.996174 -0.162299,1.468742 0.345148,0.597815 1.109571,0.802642 1.707387,0.457493 z m -1.408374,-2.939334 c 0.05978,-0.03451 0.08026,-0.110957 0.04575,-0.170739 l -0.249978,-0.432975 c -0.03451,-0.05978 -0.110958,-0.08027 -0.170739,-0.04575 l -0.432976,0.249979 c -0.05978,0.03451 -0.08026,0.110958 -0.04575,0.17074 l 0.249979,0.432975 c 0.03451,0.05978 0.110957,0.08026 0.170738,0.04575 z" />
    <path
       id="path1490-23-6-26"
       style="opacity:0.999642;fill:#f8961e;fill-opacity:1;stroke-width:1;stroke-linejoin:round;stroke-dashoffset:0.375"
       d="m 2.5025919,20.23335 c 0.5613291,0.324084 1.2693062,0.163315 1.6393958,-0.352423 0.040234,-0.05609 0.019531,-0.133048 -0.040252,-0.167564 L 3.6687589,19.463384 c -0.059782,-0.03452 -0.1354658,-0.01262 -0.1835364,0.03667 -0.1558177,0.159784 -0.4055127,0.200545 -0.6076621,0.08383 -0.239126,-0.13806 -0.3210573,-0.443829 -0.1829978,-0.682955 0.1380595,-0.239126 0.4438293,-0.321057 0.6829553,-0.182997 l 0.1082437,0.06249 0.1082445,0.06249 a 0.12498943,0.12498943 0 0 0 0.1707387,-0.04575 L 4.2647023,17.93121 c 0.034515,-0.05978 0.014032,-0.136223 -0.045749,-0.170738 L 3.7859768,17.510504 c -0.059782,-0.03452 -0.1362237,-0.01403 -0.1707382,0.04575 L 3.3982161,17.932147 C 2.8659334,17.81373 2.3183155,18.054052 2.045099,18.525963 1.6999505,19.123778 1.9047763,19.888201 2.5025919,20.23335 Z m 1.8413507,-2.689355 c 0.059782,0.03452 0.1362237,0.01403 0.1707387,-0.04575 L 4.7646598,17.06527 c 0.034515,-0.05978 0.014032,-0.136225 -0.045749,-0.170739 l -0.432976,-0.249979 c -0.059782,-0.03452 -0.1362237,-0.01403 -0.1707387,0.04575 l -0.2499785,0.432975 c -0.034515,0.05978 -0.014032,0.136225 0.045749,0.170739 z" />
    <path
       id="path1490-23-68-4"
       style="opacity:0.999642;fill:#f8961e;fill-opacity:1;stroke-width:1;stroke-linejoin:round;stroke-dashoffset:0.375"
       d="m 8.5028952,20.499829 c 0.648167,0 1.180909,-0.493218 1.243547,-1.124905 0.0068,-0.06869 -0.04961,-0.124989 -0.118642,-0.124989 h -0.499958 c -0.06903,0 -0.123629,0.0568 -0.140613,0.123524 -0.05505,0.216286 -0.250912,0.376433 -0.484334,0.376433 -0.276119,0 -0.499958,-0.223838 -0.499958,-0.499957 0,-0.276119 0.223839,-0.499958 0.499958,-0.499958 h 0.124989 0.12499 a 0.12498943,0.12498943 0 0 0 0.124989,-0.12499 v -0.999915 c 0,-0.06903 -0.05596,-0.124989 -0.124989,-0.124989 h -0.499958 c -0.06903,0 -0.124989,0.05596 -0.124989,0.124989 v 0.434045 c -0.520179,0.163589 -0.874269,0.645523 -0.874926,1.190818 0,0.690297 0.559596,1.249894 1.249894,1.249894 z m 0.249979,-3.249725 c 0.06903,0 0.124989,-0.05596 0.124989,-0.12499 v -0.499957 c 0,-0.06903 -0.05596,-0.12499 -0.124989,-0.12499 h -0.499958 c -0.06903,0 -0.124989,0.05596 -0.124989,0.12499 v 0.499957 c 0,0.06903 0.05596,0.12499 0.124989,0.12499 z" />
    <path
       id="path1490-23-1-3"
       style="opacity:0.999642;fill:#ffffff;fill-opacity:1;stroke-width:1;stroke-linejoin:round;stroke-dashoffset:0.375"
       d="m -2.9120467,19.916139 c 0.4583233,0.458323 1.1837865,0.486271 1.6747485,0.08389 0.053379,-0.04376 0.053301,-0.12346 0.00449,-0.172273 l -0.3535237,-0.353524 c -0.048812,-0.04881 -0.1275826,-0.04725 -0.1867731,-0.01208 -0.1918635,0.114011 -0.4435999,0.08876 -0.6086542,-0.0763 -0.1952456,-0.195246 -0.1952463,-0.511801 -7e-7,-0.707047 0.1952456,-0.195246 0.5118018,-0.195246 0.7070474,0 l 0.088381,0.08838 0.088381,0.08838 a 0.12498943,0.12498943 0 0 0 0.1767619,-10e-7 l 0.70704667,-0.707047 c 0.0488116,-0.04881 0.0488109,-0.12795 0,-0.176761 l -0.35352369,-0.353523 c -0.0488116,-0.04881 -0.12795028,-0.04881 -0.17676118,0 l -0.3069161,0.306916 c -0.483497,-0.252147 -1.0746552,-0.161748 -1.4607016,0.223369 -0.4881137,0.488114 -0.4881144,1.279503 0,1.767617 z m 2.47466442,-2.121141 c 0.0488116,0.04881 0.12795026,0.04881 0.17676184,0 l 0.35352299,-0.353523 c 0.04881158,-0.04881 0.04881158,-0.127951 7.1e-7,-0.176762 l -0.3535237,-0.353524 c -0.0488116,-0.04881 -0.12795026,-0.04881 -0.17676184,1e-6 l -0.35352299,0.353523 c -0.0488116,0.04881 -0.0488116,0.127951 -7e-7,0.176762 z" />
    <path
       id="path1490-1-6"
       style="opacity:0.999642;fill:#f8961e;fill-opacity:1;stroke-width:1;stroke-linejoin:round;stroke-dashoffset:0.375"
       d="m 19.916141,19.912045 c 0.458324,-0.458323 0.486271,-1.183787 0.08389,-1.674749 -0.04376,-0.05338 -0.12346,-0.0533 -0.172273,-0.0045 l -0.353524,0.353524 c -0.04881,0.04881 -0.04725,0.127583 -0.01208,0.186773 0.114011,0.191864 0.08876,0.4436 -0.0763,0.608654 -0.195246,0.195246 -0.511801,0.195247 -0.707047,1e-6 -0.195246,-0.195246 -0.195246,-0.511802 0,-0.707047 l 0.08838,-0.08838 0.08838,-0.08838 a 0.12498943,0.12498943 0 0 0 -1e-6,-0.176762 L 18.14852,17.614132 c -0.04881,-0.04881 -0.127951,-0.04881 -0.176762,0 l -0.353523,0.353524 c -0.04881,0.04881 -0.04881,0.12795 0,0.176761 l 0.306916,0.306916 c -0.252147,0.483497 -0.161748,1.074656 0.223369,1.460702 0.488114,0.488114 1.279503,0.488114 1.767617,0 z m -2.12114,-2.474665 c 0.04881,-0.04881 0.04881,-0.12795 -10e-7,-0.176761 l -0.353523,-0.353523 c -0.04881,-0.04881 -0.127951,-0.04881 -0.176762,-10e-7 l -0.353524,0.353524 c -0.04881,0.04881 -0.04881,0.12795 1e-6,0.176761 l 0.353523,0.353523 c 0.04881,0.04881 0.127951,0.04881 0.176762,1e-6 z" />
  </g>
  <metadata
     id="metadata11">
    <rdf:RDF>
      <cc:Work
         rdf:about="">
        <dc:title>SVG Icons</dc:title>
        <dc:creator>
          <cc:Agent>
            <dc:title>Stephen Paul Hassall</dc:title>
          </cc:Agent>
        </dc:creator>
        <cc:license
           rdf:resource="https://github.com/StephenHassall/svg-icon/blob/main/LICENSE.txt" />
      </cc:Work>
    </rdf:RDF>
  </metadata>
</svg>
